<svg xmlns="http://www.w3.org/2000/svg" width="24.249" height="13.678" viewBox="0 0 24.249 13.678"><defs><style>.a{fill:#ec2533;}</style></defs><g transform="translate(24.249 13.678) rotate(180)"><g transform="translate(0)"><path class="a" d="M23.973,126.823a.88.88,0,0,0-1.34,0l-9.838,10.949a.881.881,0,0,1-1.34,0L1.616,126.822a.88.88,0,0,0-1.34,0,1.144,1.144,0,0,0,0,1.494l9.837,10.947a2.642,2.642,0,0,0,4.018,0l9.838-10.948A1.144,1.144,0,0,0,23.973,126.823Z" transform="translate(0 -126.513)"/></g></g></svg>