<svg xmlns="http://www.w3.org/2000/svg" width="29.039" height="27" viewBox="0 0 29.039 27"><g transform="translate(0 -1.826)"><path d="M28.992,9.877c-.424-4.666-3.726-8.051-7.859-8.051A7.812,7.812,0,0,0,14.44,5.683,7.529,7.529,0,0,0,7.907,1.826C3.775,1.826.472,5.211.049,9.877A8.3,8.3,0,0,0,.3,12.936a13.122,13.122,0,0,0,4.021,6.709l10.117,9.181,10.291-9.18a13.124,13.124,0,0,0,4.021-6.71A8.32,8.32,0,0,0,28.992,9.877Zm-1.335,2.8a12,12,0,0,1-3.68,6.135L14.44,27.324,5.067,18.817A12.01,12.01,0,0,1,1.383,12.68a7.253,7.253,0,0,1-.232-2.625L1.159,10c.363-4.088,3.2-7.055,6.748-7.055a6.547,6.547,0,0,1,6.015,4.2l.514,1.219.514-1.219a6.747,6.747,0,0,1,6.182-4.2c3.547,0,6.385,2.967,6.755,7.108A7.245,7.245,0,0,1,27.657,12.68Z" transform="translate(0)"/></g></svg>