<svg xmlns="http://www.w3.org/2000/svg" width="24.908" height="24.908" viewBox="0 0 24.908 24.908"><defs><style>.a{fill:#fff;}</style></defs><path class="a" d="M21.26,0H3.649A3.653,3.653,0,0,0,0,3.649V21.26a3.653,3.653,0,0,0,3.649,3.649H21.26a3.653,3.653,0,0,0,3.649-3.649V3.649A3.653,3.653,0,0,0,21.26,0ZM12.5,18.973a6.568,6.568,0,1,1,6.568-6.568A6.575,6.575,0,0,1,12.5,18.973ZM19.8,7.3a2.189,2.189,0,1,1,2.189-2.189A2.192,2.192,0,0,1,19.8,7.3Zm0,0"/><path class="a" d="M392.73,90a.73.73,0,1,0,.73.73A.73.73,0,0,0,392.73,90Zm0,0" transform="translate(-372.93 -85.622)"/><path class="a" d="M157.108,150a5.108,5.108,0,1,0,5.108,5.108A5.114,5.114,0,0,0,157.108,150Zm0,0" transform="translate(-144.605 -142.703)"/></svg>